<mxfile host="app.diagrams.net" modified="2024-05-28T15:28:41.238Z" agent="Mozilla/5.0 (X11; Ubuntu; Linux x86_64; rv:126.0) Gecko/20100101 Firefox/126.0" etag="WhSvgNZ8lMiI47Dru7bn" version="24.4.3" type="device">
  <diagram name="Page-1" id="9yx6S39DQDgYQ-HQHpfn">
    <mxGraphModel dx="2218" dy="1860" grid="1" gridSize="10" guides="1" tooltips="1" connect="1" arrows="1" fold="1" page="1" pageScale="1" pageWidth="850" pageHeight="1100" math="0" shadow="0">
      <root>
        <mxCell id="0" />
        <mxCell id="1" parent="0" />
        <mxCell id="FzcCRRscWS9St-bQxqSm-47" value="" style="ellipse;shape=cloud;whiteSpace=wrap;html=1;fillColor=#fff2cc;strokeColor=#d6b656;shadow=1;" vertex="1" parent="1">
          <mxGeometry x="-690" y="80" width="690" height="550" as="geometry" />
        </mxCell>
        <mxCell id="FzcCRRscWS9St-bQxqSm-4" value="" style="ellipse;shape=cloud;whiteSpace=wrap;html=1;fillColor=#fff2cc;strokeColor=#d6b656;shadow=1;" vertex="1" parent="1">
          <mxGeometry x="200" y="-110" width="890" height="670" as="geometry" />
        </mxCell>
        <mxCell id="FzcCRRscWS9St-bQxqSm-12" style="rounded=0;orthogonalLoop=1;jettySize=auto;html=1;entryX=0;entryY=0.25;entryDx=0;entryDy=0;shadow=1;" edge="1" parent="1" source="FzcCRRscWS9St-bQxqSm-8" target="FzcCRRscWS9St-bQxqSm-2">
          <mxGeometry relative="1" as="geometry">
            <mxPoint x="240" y="206.66666666666652" as="sourcePoint" />
          </mxGeometry>
        </mxCell>
        <mxCell id="FzcCRRscWS9St-bQxqSm-9" style="rounded=0;orthogonalLoop=1;jettySize=auto;html=1;shadow=1;" edge="1" parent="1" source="FzcCRRscWS9St-bQxqSm-7" target="FzcCRRscWS9St-bQxqSm-8">
          <mxGeometry relative="1" as="geometry">
            <mxPoint x="-200" y="307" as="targetPoint" />
          </mxGeometry>
        </mxCell>
        <mxCell id="FzcCRRscWS9St-bQxqSm-7" value="" style="shape=image;html=1;verticalAlign=top;verticalLabelPosition=bottom;labelBackgroundColor=#ffffff;imageAspect=0;aspect=fixed;image=https://cdn2.iconfinder.com/data/icons/boxicons-solid-vol-2/24/bxs-joystick-128.png;shadow=1;" vertex="1" parent="1">
          <mxGeometry x="-470" y="417" width="128" height="128" as="geometry" />
        </mxCell>
        <mxCell id="FzcCRRscWS9St-bQxqSm-50" style="rounded=0;orthogonalLoop=1;jettySize=auto;html=1;entryX=0;entryY=0.5;entryDx=0;entryDy=0;shadow=1;" edge="1" parent="1" source="FzcCRRscWS9St-bQxqSm-8" target="FzcCRRscWS9St-bQxqSm-36">
          <mxGeometry relative="1" as="geometry" />
        </mxCell>
        <mxCell id="FzcCRRscWS9St-bQxqSm-8" value="Robot" style="verticalLabelPosition=bottom;outlineConnect=0;align=center;dashed=0;html=1;verticalAlign=top;shape=mxgraph.pid.misc.tank_car,_tank_wagon;fillColor=#d5e8d4;strokeColor=#82b366;shadow=1;" vertex="1" parent="1">
          <mxGeometry x="-380" y="257" width="127" height="80" as="geometry" />
        </mxCell>
        <mxCell id="FzcCRRscWS9St-bQxqSm-2" value="&lt;div&gt;MQTT Endpoint&lt;br&gt;&lt;/div&gt;" style="rounded=0;whiteSpace=wrap;html=1;fillColor=#dae8fc;strokeColor=#6c8ebf;shadow=1;" vertex="1" parent="1">
          <mxGeometry x="380" y="140" width="120" height="60" as="geometry" />
        </mxCell>
        <mxCell id="FzcCRRscWS9St-bQxqSm-13" value="" style="shape=cylinder3;whiteSpace=wrap;html=1;boundedLbl=1;backgroundOutline=1;size=15;fillColor=#e1d5e7;strokeColor=#9673a6;shadow=1;" vertex="1" parent="1">
          <mxGeometry x="590" y="200" width="100" height="70" as="geometry" />
        </mxCell>
        <mxCell id="FzcCRRscWS9St-bQxqSm-14" style="rounded=0;orthogonalLoop=1;jettySize=auto;html=1;entryX=1;entryY=0.5;entryDx=0;entryDy=0;shadow=1;" edge="1" parent="1" source="FzcCRRscWS9St-bQxqSm-3" target="FzcCRRscWS9St-bQxqSm-2">
          <mxGeometry relative="1" as="geometry" />
        </mxCell>
        <mxCell id="FzcCRRscWS9St-bQxqSm-3" value="Robot Backend" style="rounded=0;whiteSpace=wrap;html=1;fillColor=#dae8fc;strokeColor=#6c8ebf;shadow=1;" vertex="1" parent="1">
          <mxGeometry x="590" y="60" width="120" height="60" as="geometry" />
        </mxCell>
        <mxCell id="FzcCRRscWS9St-bQxqSm-29" value="Local user" style="outlineConnect=0;fontColor=#232F3E;gradientColor=none;fillColor=#232F3D;strokeColor=none;dashed=0;verticalLabelPosition=bottom;verticalAlign=top;align=center;html=1;fontSize=12;fontStyle=0;aspect=fixed;pointerEvents=1;shape=mxgraph.aws4.user;shadow=1;" vertex="1" parent="1">
          <mxGeometry x="-560" y="590" width="78" height="78" as="geometry" />
        </mxCell>
        <mxCell id="FzcCRRscWS9St-bQxqSm-30" value="Business User" style="outlineConnect=0;fontColor=#232F3E;gradientColor=none;fillColor=#232F3D;strokeColor=none;dashed=0;verticalLabelPosition=bottom;verticalAlign=top;align=center;html=1;fontSize=12;fontStyle=0;aspect=fixed;pointerEvents=1;shape=mxgraph.aws4.user;shadow=1;" vertex="1" parent="1">
          <mxGeometry x="1150" y="100" width="78" height="78" as="geometry" />
        </mxCell>
        <mxCell id="FzcCRRscWS9St-bQxqSm-31" style="rounded=0;orthogonalLoop=1;jettySize=auto;html=1;entryX=0.5;entryY=0;entryDx=0;entryDy=0;entryPerimeter=0;shadow=1;" edge="1" parent="1" source="FzcCRRscWS9St-bQxqSm-3" target="FzcCRRscWS9St-bQxqSm-13">
          <mxGeometry relative="1" as="geometry" />
        </mxCell>
        <mxCell id="FzcCRRscWS9St-bQxqSm-42" style="rounded=0;orthogonalLoop=1;jettySize=auto;html=1;shadow=1;" edge="1" parent="1" source="FzcCRRscWS9St-bQxqSm-33" target="FzcCRRscWS9St-bQxqSm-41">
          <mxGeometry relative="1" as="geometry" />
        </mxCell>
        <mxCell id="FzcCRRscWS9St-bQxqSm-43" style="rounded=0;orthogonalLoop=1;jettySize=auto;html=1;shadow=1;" edge="1" parent="1" source="FzcCRRscWS9St-bQxqSm-33" target="FzcCRRscWS9St-bQxqSm-13">
          <mxGeometry relative="1" as="geometry" />
        </mxCell>
        <mxCell id="FzcCRRscWS9St-bQxqSm-33" value="" style="pointerEvents=1;shadow=1;dashed=0;html=1;strokeColor=none;labelPosition=center;verticalLabelPosition=bottom;verticalAlign=top;align=center;fillColor=#505050;shape=mxgraph.mscae.oms.dashboard;" vertex="1" parent="1">
          <mxGeometry x="800" y="130" width="160" height="100" as="geometry" />
        </mxCell>
        <mxCell id="FzcCRRscWS9St-bQxqSm-39" style="rounded=0;orthogonalLoop=1;jettySize=auto;html=1;shadow=1;" edge="1" parent="1" source="FzcCRRscWS9St-bQxqSm-34" target="FzcCRRscWS9St-bQxqSm-13">
          <mxGeometry relative="1" as="geometry" />
        </mxCell>
        <mxCell id="FzcCRRscWS9St-bQxqSm-34" value="&lt;div&gt;Big Data&lt;/div&gt;&lt;div&gt;Analytics&lt;br&gt;&lt;/div&gt;" style="rounded=0;whiteSpace=wrap;html=1;fillColor=#dae8fc;strokeColor=#6c8ebf;shadow=1;" vertex="1" parent="1">
          <mxGeometry x="670" y="320" width="120" height="60" as="geometry" />
        </mxCell>
        <mxCell id="FzcCRRscWS9St-bQxqSm-35" value="Unstructured data storage " style="ellipse;shape=cloud;whiteSpace=wrap;html=1;fillColor=#f5f5f5;fontColor=#333333;strokeColor=#666666;shadow=1;" vertex="1" parent="1">
          <mxGeometry x="450" y="350" width="120" height="80" as="geometry" />
        </mxCell>
        <mxCell id="FzcCRRscWS9St-bQxqSm-37" style="rounded=0;orthogonalLoop=1;jettySize=auto;html=1;shadow=1;" edge="1" parent="1" source="FzcCRRscWS9St-bQxqSm-36" target="FzcCRRscWS9St-bQxqSm-35">
          <mxGeometry relative="1" as="geometry" />
        </mxCell>
        <mxCell id="FzcCRRscWS9St-bQxqSm-36" value="HTTP Endpoint" style="rounded=0;whiteSpace=wrap;html=1;fillColor=#dae8fc;strokeColor=#6c8ebf;shadow=1;" vertex="1" parent="1">
          <mxGeometry x="410" y="240" width="120" height="60" as="geometry" />
        </mxCell>
        <mxCell id="FzcCRRscWS9St-bQxqSm-40" style="rounded=0;orthogonalLoop=1;jettySize=auto;html=1;entryX=0.958;entryY=0.363;entryDx=0;entryDy=0;entryPerimeter=0;shadow=1;" edge="1" parent="1" source="FzcCRRscWS9St-bQxqSm-34" target="FzcCRRscWS9St-bQxqSm-35">
          <mxGeometry relative="1" as="geometry" />
        </mxCell>
        <mxCell id="FzcCRRscWS9St-bQxqSm-41" value="&lt;div&gt;Aggregated&lt;/div&gt;&lt;div&gt;Metrics&lt;br&gt;&lt;/div&gt;" style="shape=cylinder3;whiteSpace=wrap;html=1;boundedLbl=1;backgroundOutline=1;size=15;fillColor=#e1d5e7;strokeColor=#9673a6;shadow=1;" vertex="1" parent="1">
          <mxGeometry x="850" y="310" width="100" height="70" as="geometry" />
        </mxCell>
        <mxCell id="FzcCRRscWS9St-bQxqSm-44" style="rounded=0;orthogonalLoop=1;jettySize=auto;html=1;entryX=1;entryY=0.5;entryDx=0;entryDy=0;entryPerimeter=0;shadow=1;" edge="1" parent="1" source="FzcCRRscWS9St-bQxqSm-30" target="FzcCRRscWS9St-bQxqSm-33">
          <mxGeometry relative="1" as="geometry" />
        </mxCell>
        <mxCell id="FzcCRRscWS9St-bQxqSm-45" value="Cloud" style="text;html=1;align=center;verticalAlign=middle;whiteSpace=wrap;rounded=0;shadow=1;" vertex="1" parent="1">
          <mxGeometry x="550" y="-30" width="60" height="30" as="geometry" />
        </mxCell>
        <mxCell id="FzcCRRscWS9St-bQxqSm-46" value="" style="image;html=1;image=img/lib/clip_art/networking/Wireless_Router_N_128x128.png;shadow=1;" vertex="1" parent="1">
          <mxGeometry x="50" y="120" width="80" height="80" as="geometry" />
        </mxCell>
        <mxCell id="FzcCRRscWS9St-bQxqSm-48" value="Private Network" style="text;html=1;align=center;verticalAlign=middle;whiteSpace=wrap;rounded=0;shadow=1;" vertex="1" parent="1">
          <mxGeometry x="-410" y="190" width="60" height="30" as="geometry" />
        </mxCell>
      </root>
    </mxGraphModel>
  </diagram>
</mxfile>
